<?xml version="1.0" encoding="UTF-8"?>
<svg xmlns="http://www.w3.org/2000/svg" xmlns:xlink="http://www.w3.org/1999/xlink" width="204.5pt" height="91.5pt" viewBox="0 0 204.5 91.5" version="1.2">
<g id="surface1">
<path style=" stroke:none;fill-rule:nonzero;fill:rgb(0%,0%,0%);fill-opacity:1;" d="M 5.148438 88.832031 L 45.929688 88.832031 L 45.929688 78.632812 L 5.148438 78.632812 Z M 5.148438 88.832031 "/>
<path style=" stroke:none;fill-rule:nonzero;fill:rgb(0%,0%,0%);fill-opacity:1;" d="M 56.125 88.832031 L 96.90625 88.832031 L 96.90625 78.632812 L 56.125 78.632812 Z M 56.125 88.832031 "/>
<path style=" stroke:none;fill-rule:nonzero;fill:rgb(0%,0%,0%);fill-opacity:1;" d="M 56.125 76.085938 L 96.90625 76.085938 L 96.90625 65.890625 L 56.125 65.890625 Z M 56.125 76.085938 "/>
<path style=" stroke:none;fill-rule:nonzero;fill:rgb(0%,0%,0%);fill-opacity:1;" d="M 56.125 63.34375 L 96.90625 63.34375 L 96.90625 53.148438 L 56.125 53.148438 Z M 56.125 63.34375 "/>
<path style=" stroke:none;fill-rule:nonzero;fill:rgb(0%,0%,0%);fill-opacity:1;" d="M 107.097656 88.832031 L 147.878906 88.832031 L 147.878906 78.632812 L 107.097656 78.632812 Z M 107.097656 88.832031 "/>
<path style=" stroke:none;fill-rule:nonzero;fill:rgb(0%,0%,0%);fill-opacity:1;" d="M 107.097656 76.085938 L 147.878906 76.085938 L 147.878906 65.890625 L 107.097656 65.890625 Z M 107.097656 76.085938 "/>
<path style=" stroke:none;fill-rule:nonzero;fill:rgb(0%,0%,0%);fill-opacity:1;" d="M 107.097656 63.34375 L 147.878906 63.34375 L 147.878906 53.148438 L 107.097656 53.148438 Z M 107.097656 63.34375 "/>
<path style=" stroke:none;fill-rule:nonzero;fill:rgb(0%,0%,0%);fill-opacity:1;" d="M 107.097656 50.597656 L 147.878906 50.597656 L 147.878906 40.402344 L 107.097656 40.402344 Z M 107.097656 50.597656 "/>
<path style=" stroke:none;fill-rule:nonzero;fill:rgb(0%,0%,0%);fill-opacity:1;" d="M 107.097656 37.855469 L 147.878906 37.855469 L 147.878906 27.660156 L 107.097656 27.660156 Z M 107.097656 37.855469 "/>
<path style=" stroke:none;fill-rule:nonzero;fill:rgb(0%,0%,0%);fill-opacity:1;" d="M 158.074219 88.832031 L 198.851562 88.832031 L 198.851562 78.632812 L 158.074219 78.632812 Z M 158.074219 88.832031 "/>
<path style=" stroke:none;fill-rule:nonzero;fill:rgb(0%,0%,0%);fill-opacity:1;" d="M 158.074219 76.085938 L 198.851562 76.085938 L 198.851562 65.890625 L 158.074219 65.890625 Z M 158.074219 76.085938 "/>
<path style=" stroke:none;fill-rule:nonzero;fill:rgb(0%,0%,0%);fill-opacity:1;" d="M 158.074219 63.34375 L 198.851562 63.34375 L 198.851562 53.148438 L 158.074219 53.148438 Z M 158.074219 63.34375 "/>
<path style=" stroke:none;fill-rule:nonzero;fill:rgb(0%,0%,0%);fill-opacity:1;" d="M 158.074219 50.597656 L 198.851562 50.597656 L 198.851562 40.402344 L 158.074219 40.402344 Z M 158.074219 50.597656 "/>
<path style=" stroke:none;fill-rule:nonzero;fill:rgb(0%,0%,0%);fill-opacity:1;" d="M 158.074219 37.855469 L 198.851562 37.855469 L 198.851562 27.660156 L 158.074219 27.660156 Z M 158.074219 37.855469 "/>
<path style=" stroke:none;fill-rule:nonzero;fill:rgb(0%,0%,0%);fill-opacity:1;" d="M 158.074219 25.113281 L 198.851562 25.113281 L 198.851562 14.917969 L 158.074219 14.917969 Z M 158.074219 25.113281 "/>
<path style=" stroke:none;fill-rule:nonzero;fill:rgb(0%,0%,0%);fill-opacity:1;" d="M 158.074219 12.367188 L 198.851562 12.367188 L 198.851562 2.171875 L 158.074219 2.171875 Z M 158.074219 12.367188 "/>
</g>
</svg>
